<?xml version="1.0" standalone="no"?>
<!DOCTYPE svg PUBLIC "-//W3C//DTD SVG 20010904//EN"
 "http://www.w3.org/TR/2001/REC-SVG-20010904/DTD/svg10.dtd">
<svg version="1.0" xmlns="http://www.w3.org/2000/svg"
 width="512.000000pt" height="512.000000pt" viewBox="0 0 512.000000 512.000000"
 preserveAspectRatio="xMidYMid meet">
<metadata>
Created by potrace 1.11, written by Peter Selinger 2001-2013
</metadata>
<g transform="translate(0.000000,512.000000) scale(0.100000,-0.100000)"
fill="#000000" stroke="none">
<path d="M2445 5090 c-3 -5 -35 -10 -71 -10 -88 0 -240 -17 -349 -40 -95 -20
-253 -61 -270 -71 -5 -4 -35 -14 -65 -24 -30 -9 -64 -23 -75 -29 -11 -7 -39
-18 -62 -24 -24 -7 -43 -17 -43 -22 0 -6 -6 -10 -12 -10 -18 0 -192 -89 -261
-133 -31 -20 -60 -37 -64 -37 -3 0 -41 -27 -85 -60 -43 -33 -80 -60 -82 -60
-17 0 -233 -199 -327 -301 -87 -94 -229 -277 -229 -294 0 -3 -6 -13 -12 -20
-31 -34 -53 -69 -78 -122 -11 -23 -24 -43 -28 -45 -4 -2 -29 -50 -56 -108 -26
-58 -56 -121 -66 -140 -10 -19 -21 -49 -24 -67 -4 -17 -16 -48 -26 -69 -11
-21 -25 -64 -31 -96 -6 -32 -15 -58 -18 -58 -4 0 -15 -44 -25 -97 -10 -54 -22
-102 -26 -108 -34 -43 -51 -580 -26 -813 9 -84 20 -161 25 -170 5 -9 17 -55
26 -102 9 -47 20 -94 25 -105 5 -11 17 -49 25 -84 9 -36 23 -74 31 -85 8 -11
14 -27 14 -36 0 -8 11 -37 25 -65 13 -27 25 -53 25 -57 0 -10 99 -210 129
-263 13 -22 38 -61 57 -86 19 -26 34 -52 34 -58 0 -6 4 -11 8 -11 4 0 16 -15
26 -33 17 -29 112 -149 159 -201 78 -86 218 -226 226 -226 6 0 14 -6 18 -13
10 -16 223 -187 243 -195 8 -3 33 -18 54 -34 21 -15 45 -28 53 -28 7 0 13 -4
13 -8 0 -4 48 -32 108 -62 59 -30 108 -58 110 -62 2 -5 10 -8 17 -8 12 0 60
-19 210 -85 17 -7 55 -19 85 -26 30 -7 60 -16 66 -21 10 -7 117 -32 279 -63
141 -28 421 -40 618 -26 100 7 214 19 252 26 147 29 261 55 275 63 8 5 48 17
88 27 39 10 72 22 72 26 0 4 15 11 33 14 17 4 43 13 57 20 14 7 50 24 80 37
105 46 214 103 287 151 24 15 47 27 53 27 6 0 13 7 16 15 4 8 11 15 18 15 11
0 84 53 117 85 9 8 19 15 24 15 4 0 17 9 29 20 12 11 62 56 113 100 97 85 260
256 280 294 7 13 19 26 28 30 8 3 15 11 15 18 1 7 14 29 30 48 17 19 30 40 30
47 0 7 4 13 9 13 8 0 21 17 72 100 51 82 161 298 180 353 7 20 16 37 20 37 4
0 10 16 14 36 6 36 10 46 33 91 6 12 18 52 27 90 8 37 19 77 25 88 15 33 38
162 50 290 7 66 16 128 21 137 12 23 12 410 0 440 -5 13 -14 75 -20 138 -12
120 -35 251 -51 285 -4 11 -13 43 -19 70 -12 52 -50 162 -81 230 -10 22 -22
54 -26 70 -4 17 -11 35 -16 42 -5 6 -30 53 -56 104 -68 134 -80 154 -165 278
-61 89 -175 234 -193 244 -8 4 -14 13 -14 20 0 29 -393 376 -427 377 -7 0 -16
6 -20 14 -18 30 -291 179 -498 272 -46 20 -142 53 -225 75 -41 11 -84 25 -95
29 -48 21 -333 60 -442 60 -42 0 -73 4 -73 10 0 6 -43 10 -109 10 -63 0 -112
-4 -116 -10z"/>
</g>
</svg>
